<svg xmlns="http://www.w3.org/2000/svg" xmlns:xlink="http://www.w3.org/1999/xlink" width="194" height="111" viewBox="0 0 194 111"><defs><linearGradient id="a" x1="133.33" y1="706.65" x2="-6.24" y2="792.13" gradientTransform="translate(0 -682)" gradientUnits="userSpaceOnUse"><stop offset="0" stop-color="#2b226e"></stop><stop offset="0.78" stop-color="#0050a0"></stop></linearGradient><linearGradient id="b" x1="147.87" y1="730.54" x2="8.29" y2="816.01" xlink:href="#a"></linearGradient><linearGradient id="c" x1="155.01" y1="742.06" x2="15.44" y2="827.54" xlink:href="#a"></linearGradient><linearGradient id="d" x1="164.07" y1="756.84" x2="24.48" y2="842.31" xlink:href="#a"></linearGradient><linearGradient id="e" x1="0.2" y1="756.2" x2="94.64" y2="756.2" gradientTransform="translate(0 -682)" gradientUnits="userSpaceOnUse"><stop offset="0" stop-color="#009fe3"></stop><stop offset="0.01" stop-color="#02a0e3"></stop><stop offset="0.32" stop-color="#2bb0ea"></stop><stop offset="0.59" stop-color="#48bcee"></stop><stop offset="0.83" stop-color="#5ac3f1"></stop><stop offset="1" stop-color="#60c6f2"></stop></linearGradient><linearGradient id="f" x1="0.21" y1="772.62" x2="94.65" y2="772.62" xlink:href="#e"></linearGradient><linearGradient id="g" x1="94.25" y1="695.03" x2="-4.03" y2="730.81" gradientTransform="translate(0 -682)" gradientUnits="userSpaceOnUse"><stop offset="0" stop-color="#95c11f"></stop><stop offset="0.78" stop-color="#c1d100"></stop></linearGradient></defs><path d="M105.1,51.9a10.3,10.3,0,0,0-7-2H89.9a10.86,10.86,0,0,0-7,2c-1.7,1.4-2.5,3.6-2.5,6.7v6.8a6.91,6.91,0,0,1-1.6,2.2,4.3,4.3,0,0,1-2.7.8H53.4a11.08,11.08,0,0,1-1.9-.2,2.46,2.46,0,0,1-1.6-2,10.28,10.28,0,0,1-.1-1.7V53.3a4.83,4.83,0,0,1,.8-3.1,3.89,3.89,0,0,1,2.9-.9H70.8a3.77,3.77,0,0,1,2.7.8,4.31,4.31,0,0,1,1.3,1.7l3.9-4.1a10.93,10.93,0,0,0-.8-1.5,5.36,5.36,0,0,0-1.5-1.5,9.41,9.41,0,0,0-2.2-1.2,10.59,10.59,0,0,0-3.1-.5H53.4a18.31,18.31,0,0,0-4.7.5,5.64,5.64,0,0,0-3.1,1.7A6.49,6.49,0,0,0,44,48.4a20.4,20.4,0,0,0-.5,4.9V64.4a19.89,19.89,0,0,0,.5,4.9,6.34,6.34,0,0,0,1.7,3.1,6.72,6.72,0,0,0,3.1,1.7,18.8,18.8,0,0,0,4.7.5h23a8.4,8.4,0,0,0,3.1-.5,7.76,7.76,0,0,0,2.2-1.2,5,5,0,0,0,.8-.7,1.38,1.38,0,0,0,.4.3,10.3,10.3,0,0,0,7,2h16.5l.8-5.3H89.9a3.67,3.67,0,0,1-2.5-.7,3.32,3.32,0,0,1-.9-2.7V64.3h21.2V58.5C107.7,55.5,106.8,53.3,105.1,51.9Zm-3.6,8.7H86.6v-2a3.66,3.66,0,0,1,.8-2.6,3.53,3.53,0,0,1,2.6-.8h8.2a3.53,3.53,0,0,1,2.6.8,4.28,4.28,0,0,1,.8,2.9Z" style="fill:url(#a)"></path><path d="M142.1,63.9a7.52,7.52,0,0,0,3.3-1.4,7,7,0,0,0,1.9-2.9,18.35,18.35,0,0,0,.6-4.7V53a16.8,16.8,0,0,0-.5-4.5,8.92,8.92,0,0,0-1.5-3.1,6.24,6.24,0,0,0-2.8-1.7,12.39,12.39,0,0,0-4.3-.5H113V74.8h6.3V64.3h10l10.9,10.3h8.7L137.2,64.3A27,27,0,0,0,142.1,63.9Zm-22.9-4.7V49.4h19.4a2.81,2.81,0,0,1,2.6,1.1,8,8,0,0,1,.5,3.4v1.5a5,5,0,0,1-.7,2.9,3,3,0,0,1-2.4.9Z" style="fill:url(#b)"></path><polygon points="152.6 74.7 158.8 74.7 158.8 62.1 181.8 62.1 181.8 56.6 158.8 56.6 158.8 49.3 182.3 49.3 182.3 43.1 152.6 43.1 152.6 74.7" style="fill:url(#c)"></polygon><rect x="187" y="43.1" width="6.2" height="31.6" style="fill:url(#d)"></rect><path d="M194,36a3.9,3.9,0,1,1-3.9-3.9h0A3.84,3.84,0,0,1,194,36Z" style="fill:#e30613"></path><path d="M192.1,35.5h-1.5V34h0a.43.43,0,0,0-.4-.4h-.4a.43.43,0,0,0-.4.4h0v1.5H188a.43.43,0,0,0-.4.4h0v.4a.43.43,0,0,0,.4.4h1.5v1.5h0a.43.43,0,0,0,.4.4h.4a.43.43,0,0,0,.4-.4h0V36.7h1.5a.43.43,0,0,0,.4-.4v-.4a.66.66,0,0,0-.5-.4Z" style="fill:#fff"></path><path d="M.2,60.3c.5,10.8,7.4,21,22.5,27.8a62.68,62.68,0,0,1-3.5-7.4C1.8,71.3.2,60.3.2,60.3Z" style="fill:url(#e)"></path><path d="M94.7,95.3S58.9,97.4,27.8,84.8Q29,88,30.5,91.1C45.4,95.9,66.5,97.9,94.7,95.3Z" style="fill:url(#f)"></path><path d="M23.1,53a89.64,89.64,0,0,1,4.8-21.7c-1.8.9-3.6,1.9-5.4,2.9h0a68.52,68.52,0,0,0-6.1,24A30.86,30.86,0,0,1,23.1,53Z" style="fill:#f39200"></path><path d="M81.2,15C21.4,18.8-1.1,37.7,0,59.2c0,0,.6-13.4,22.1-25.8A147.34,147.34,0,0,1,81.2,15Z" style="fill:url(#g)"></path><path d="M46.5,0a141.66,141.66,0,0,0-19,24.6c1.2-.5,2.4-1,3.7-1.4A97.2,97.2,0,0,1,46.5,0Z" style="fill:#f39200"></path><path d="M22.8,58.8c0-2,.2-3.9.3-5.8a26.21,26.21,0,0,0-6.7,5.2C15.3,78.8,25.7,96.8,44.8,111,40.3,107.5,22.2,91.4,22.8,58.8Z" style="fill:#e30613"></path></svg>