<?xml version="1.0" encoding="utf-8"?>
<svg fill="none" viewBox="0 0 35 32" xmlns="http://www.w3.org/2000/svg">
  <path d="M 9.318 26.564 C 9.347 27.649 8.939 28.7 8.185 29.481 C 7.432 30.258 6.396 30.698 5.313 30.699 C 4.23 30.699 3.193 30.26 2.441 29.481 C 1.686 28.701 1.277 27.649 1.308 26.564 C 1.317 25.866 1.508 25.182 1.865 24.583 C 2.221 23.983 2.728 23.489 3.335 23.15 C 3.311 23.259 3.425 23.095 3.335 23.15 L 5.195 21.498 C 6.669 19.929 7.493 17.858 7.499 15.705 C 7.499 12.779 5.788 9.804 3.329 8.248 C 3.423 8.303 3.293 8.154 3.329 8.248 C 2.722 7.908 2.215 7.414 1.86 6.815 C 1.504 6.215 1.312 5.532 1.303 4.835 C 1.273 3.75 1.682 2.698 2.436 1.917 C 3.189 1.14 4.225 0.7 5.307 0.699 C 6.39 0.698 7.427 1.138 8.179 1.917 C 8.935 2.697 9.343 3.749 9.312 4.834 C 9.322 7.006 10.162 9.092 11.659 10.666 L 12.476 11.466 C 12.802 11.751 13.144 12.017 13.5 12.264 C 14.121 12.594 14.642 13.09 15.004 13.695 C 16.147 15.606 15.462 18.084 13.5 19.137 C 13.533 19.07 13.437 19.173 13.5 19.137 C 12.244 19.931 11.205 21.025 10.476 22.32 C 9.745 23.617 9.348 25.075 9.318 26.564 Z M 13.801 4.822 C 13.801 5.618 14.036 6.397 14.477 7.059 C 14.916 7.72 15.542 8.236 16.275 8.541 C 17.772 9.164 19.498 8.819 20.641 7.668 C 21.787 6.514 22.129 4.786 21.51 3.282 C 21.207 2.547 20.694 1.919 20.034 1.476 C 18.446 0.41 16.324 0.62 14.976 1.977 C 14.224 2.733 13.802 3.756 13.801 4.822 Z M 17.808 22.539 C 17.016 22.539 16.241 22.775 15.582 23.217 C 14.922 23.66 14.409 24.288 14.106 25.023 C 13.487 26.527 13.829 28.256 14.975 29.41 C 16.118 30.561 17.843 30.907 19.341 30.283 C 20.074 29.977 20.701 29.461 21.14 28.799 C 22.201 27.201 21.992 25.077 20.64 23.717 C 19.89 22.963 18.871 22.538 17.808 22.537 Z M 28.06 15.693 C 28.06 14.897 27.825 14.119 27.385 13.457 C 26.946 12.795 26.32 12.279 25.587 11.974 C 24.089 11.35 22.363 11.695 21.22 12.847 C 20.074 14.001 19.732 15.73 20.351 17.234 C 20.654 17.969 21.167 18.597 21.827 19.04 C 22.485 19.482 23.26 19.718 24.053 19.718 C 25.116 19.716 26.135 19.292 26.885 18.538 C 27.637 17.782 28.059 16.759 28.06 15.692 Z" transform="matrix(-1, 0, 0, -1, 29.361458, 31.397999)" style="paint-order: fill; stroke-dasharray: 4px;" fill="#6366f1"/>
  <g transform="matrix(0.497634, 0.287309, -0.287309, 0.497634, 27.59733, 5.2108)" style="">
    <path d="M6 13c-2.2 0-4 1.8-4 4s1.8 4 4 4 4-1.8 4-4-1.8-4-4-4zm6-10C9.8 3 8 4.8 8 7s1.8 4 4 4 4-1.8 4-4-1.8-4-4-4zm6 10c-2.2 0-4 1.8-4 4s1.8 4 4 4 4-1.8 4-4-1.8-4-4-4z" style="fill: rgb(99, 102, 241);"/>
  </g>
</svg>