<svg id="Ebene_1" data-name="Ebene 1" xmlns="http://www.w3.org/2000/svg" viewBox="0 0 399.36 103.28">
  <defs>
    <style>
      .cls-1 {
        fill: #1d1d1b;
      }
    </style>
  </defs>
  <title>Zeichenfläche 1 Kopie 2</title>
  <g>
    <path class="cls-1" d="M157.85,25.72v-.41l-.21-.21h-1.46l-.41.21-1.88,2.08v.41l.21.21h1l.42-.21Zm2.29,17.91V42.17l-.21-.21h-7.29l-.21-.21V37.59l.21-.21h6.87l.21-.21V35.72l-.21-.21h-6.87l-.21-.21v-4l.21-.2h7.29l.21-.21V29.47l-.21-.21h-9.37l-.21.21V43.63l.21.21h9.37ZM146.6,30.93V29.47l-.2-.21H135.15l-.2.21v1.46l.2.21h4.38l.2.2V43.63l.21.21h1.67l.21-.21V31.34l.2-.2h4.38Zm-15.69,12.7V29.47l-.2-.21H129l-.21.21V43.63l.21.21h1.67Zm-7.09-10.2c0-2.92-1.88-4.17-4.79-4.17h-6.45l-.21.21V43.63l.21.21h1.66l.21-.21V37.8l.21-.21H118l.41.21,3.75,5.83.42.21h.83l.21-.21V42.17l-2.91-4.58v-.21a3.7,3.7,0,0,0,3.12-4m-2.08,0c0,1.66-.84,2.29-2.71,2.29h-4.37l-.21-.21V31.34l.21-.2H119c1.87,0,2.71.62,2.71,2.29m-14.37-4-.21-.21H105.5l-.21.21v9.16c0,2.08-1,3.54-3.54,3.54s-3.54-1.46-3.54-3.54V29.47L98,29.26H96.34l-.21.21v9.16c0,3.33,2.08,5.41,5.62,5.41s5.62-2.08,5.62-5.41Zm-15,1.46V29.47l-.21-.21H80.93l-.21.21v1.46l.21.21H85.3l.21.2V43.63l.21.21h1.66l.21-.21V31.34l.21-.2h4.37ZM76,38.21l-.21.21H71.43l-.21-.21,2.29-5.83h.21Zm3.75,5.42V42.17l-5-12.7-.21-.21H72.68l-.21.21-5,12.7v1.46l.21.21h1.25l.21-.21,1.25-3.13.41-.2h5.62l.42.2,1.25,3.13.21.21h1.25Zm-16.32,0V29.47l-.21-.21H60.94l-.21.21L56,41.13h-.21L51,29.47l-.21-.21H48.45l-.21.21V43.63l.21.21h1.67l.2-.21v-10h.21l4.17,10,.2.21h1.88l.21-.21,4.16-10h.21v10l.21.21h1.66Z"/>
    <polygon class="cls-1" points="174.14 35.51 173.93 35.72 173.93 37.17 174.14 37.38 370 37.38 370.21 37.17 370.21 35.72 370 35.51 174.14 35.51"/>
    <polygon class="cls-1" points="123.22 67.43 123.22 65.97 123.01 65.77 29.36 65.77 29.15 65.97 29.15 67.43 29.36 67.64 123.01 67.64 123.22 67.43"/>
    <path class="cls-1" d="M350.17,73.72V72.26l-.21-.2h-7.29l-.21-.21V67.68l.21-.2h6.87l.21-.21V65.81l-.21-.21h-6.87l-.21-.21v-4l.21-.21H350l.21-.21V59.56l-.21-.2h-9.37l-.21.2V73.72l.21.21H350Zm-13.33,0V72.26l-.2-.2h-6.88l-.2-.21V59.56l-.21-.2h-1.67l-.21.2V73.72l.21.21h9Zm-12.91,0V72.26l-.2-.2h-6.87l-.21-.21V59.56l-.21-.2h-1.67l-.2.2V73.72l.2.21h9Zm-13.94,0V72.26l-.21-.2h-7.29l-.21-.21V67.68l.21-.2h6.87l.21-.21V65.81l-.21-.21h-6.87l-.21-.21v-4l.21-.21h7.29L310,61V59.56l-.21-.2h-9.37l-.21.2V73.72l.21.21h9.37Zm-14.79,0V59.56l-.2-.2h-1.67l-.21.2V70.39h-.21l-7.08-10.83-.41-.2h-1.88l-.2.2V73.72l.2.21h1.67l.21-.21V62.89h.21l7.08,10.83.41.21H295Zm-16.86,0V59.56l-.21-.2h-1.66l-.21.2V70.39h-.21L269,59.56l-.42-.2h-1.87l-.21.2V73.72l.21.21h1.67l.2-.21V62.89h.21l7.08,10.83.42.21h1.87Zm-27.69-7.08c0-3.33,1.66-5.62,4.79-5.62s4.79,2.29,4.79,5.62-1.67,5.62-4.79,5.62-4.79-2.29-4.79-5.62m-2.08,0c0,4.37,2.5,7.5,6.87,7.5s6.87-3.13,6.87-7.5-2.5-7.49-6.87-7.49-6.87,3.12-6.87,7.49m-4.17,7.08V59.56l-.2-.2h-1.67l-.21.2V73.72l.21.21h1.67ZM238.16,70c0-2.91-2.08-4-5-4.37s-3.95-.83-3.95-2.5c0-1.25,1-2.08,2.91-2.08,2.71,0,3.54.83,3.54,2.5l.21.21h1.66l.21-.21c0-3.12-2.29-4.37-5.41-4.37-3.75,0-5.21,2.08-5.21,4,0,2.5,1.88,3.75,4.79,4.17s4.17.83,4.17,2.7c0,1.67-1.46,2.29-3.34,2.29-2.49,0-4-.83-4-2.91l-.21-.21h-1.67l-.2.21c0,3.12,2.29,4.79,5.83,4.79,4,0,5.62-1.88,5.62-4.17m-14.78,0c0-2.91-2.09-4-5-4.37s-4-.83-4-2.5c0-1.25,1-2.08,2.92-2.08,2.7,0,3.54.83,3.54,2.5l.21.21h1.66l.21-.21c0-3.12-2.29-4.37-5.41-4.37-3.75,0-5.21,2.08-5.21,4,0,2.5,1.87,3.75,4.79,4.17s4.16.83,4.16,2.7c0,1.67-1.45,2.29-3.33,2.29-2.5,0-4-.83-4-2.91l-.21-.21h-1.67l-.21.21c0,3.12,2.29,4.79,5.83,4.79,4,0,5.63-1.88,5.63-4.17m-15.2,3.75V72.26l-.21-.2h-7.29l-.21-.21V67.68l.21-.2h6.87l.21-.21V65.81l-.21-.21h-6.87l-.21-.21v-4l.21-.21H208l.21-.21V59.56l-.21-.2H198.6l-.21.2V73.72l.21.21H208Zm-14-12.7V59.56l-.21-.2h-9l-.21.2V73.72l.21.21h1.66l.21-.21V67.89l.21-.21h6.45l.21-.2V66l-.21-.21h-6.45l-.21-.21V61.44l.21-.21H194ZM169,66.64c0-3.33,1.66-5.62,4.78-5.62s4.79,2.29,4.79,5.62-1.66,5.62-4.79,5.62S169,70,169,66.64m-2.09,0c0,4.37,2.5,7.5,6.87,7.5s6.88-3.13,6.88-7.5-2.5-7.49-6.88-7.49S167,62.27,167,66.64m-3.33-3.12c0-2.92-1.87-4.16-4.79-4.16h-6.45l-.21.2V73.72l.21.21h1.67l.2-.21V67.89l.21-.21h3.33l.42.21L162,73.72l.41.21h.84l.2-.21V72.26l-2.91-4.58v-.2a3.71,3.71,0,0,0,3.12-4m-2.08,0c0,1.67-.83,2.29-2.71,2.29h-4.37l-.21-.21V61.44l.21-.21h4.37c1.88,0,2.71.62,2.71,2.29m-15.2,0c0,1.67-.83,2.29-2.7,2.29h-4.38l-.2-.21V61.44l.2-.21h4.38c1.87,0,2.7.62,2.7,2.29m2.08,0c0-2.92-1.87-4.16-4.78-4.16h-6.46l-.21.2V73.72l.21.21h1.67l.21-.21V67.89l.2-.21h4.38c2.7,0,4.78-1.25,4.78-4.16"/>
  </g>
</svg>
